<svg width="48" height="48" viewBox="0 0 48 48" fill="none" xmlns="http://www.w3.org/2000/svg">
<path d="M47.7457 30.8679C47.0193 29.4911 45.3514 29.1488 43.8837 29.2009C44.106 28.1367 43.3129 26.9236 42.327 26.5292C41.1113 26.0454 39.6658 26.5292 38.5094 26.9682C38.3685 27.0203 38.2351 27.0724 38.0943 27.132C37.6495 26.5366 36.4116 26.425 35.8185 26.4399C35.1736 26.4622 34.5584 26.7375 33.9654 26.9831C33.313 27.251 32.6681 27.5487 32.0232 27.8241C30.7111 28.3823 29.4065 28.9851 28.0425 29.4167C28.9173 28.613 29.6659 27.2138 29.2953 26.0008C28.8876 24.6537 27.3532 24.3412 26.13 24.3114C24.6994 24.2742 23.2835 24.3337 21.8529 24.237C18.8803 24.036 15.7225 23.3067 12.8019 24.2519C11.2897 24.7356 9.86641 25.6733 8.80638 26.8641C8.65071 27.0427 8.48763 27.2362 8.33196 27.4371C8.39868 27.0427 8.2356 26.611 7.73894 26.4771C6.53066 26.1422 5.26307 26.0529 4.01031 25.9859C2.9577 25.9338 1.67529 25.8742 0.874708 26.6929C0.200145 27.3701 0.385464 28.2632 0.385464 29.119C0.385464 29.5432 0.363226 29.9674 0.348401 30.3916C0.222383 33.3164 0.0296511 36.2486 0 39.1808C0 39.8506 0.0148256 40.513 0.0296511 41.1753C0.0444767 41.607 0.0148256 42.0833 0.163081 42.5C0.303924 42.9168 0.630086 43.1624 1.06744 43.1922C2.61671 43.2889 4.18822 43.4303 5.7449 43.3856C6.48618 43.3633 7.22746 43.1996 7.69446 42.6712C7.7167 42.6712 7.73153 42.6712 7.75377 42.6712C8.73967 42.6712 9.74039 42.5372 10.7263 42.5149C11.7863 42.4851 12.8463 42.4777 13.899 42.4926C15.9671 42.5224 18.0353 42.6638 20.096 42.8275C22.2309 42.9986 24.3806 43.2591 26.5229 43.2815C28.5021 43.3038 30.3405 42.9614 32.1344 42.1354C35.181 40.7362 37.6643 38.3399 40.748 37.0003C42.4456 36.2561 44.3358 35.9063 45.9147 34.8941C47.1897 34.0755 48.5834 32.4606 47.7457 30.8679ZM6.75304 31.2177C6.65668 32.6913 6.54548 34.1648 6.49359 35.6458C6.4417 37.0226 6.38982 38.4068 6.33051 39.7836C6.31569 40.1706 6.29345 40.5502 6.27862 40.9372C6.27862 40.9818 6.27862 41.0265 6.27121 41.0711C6.27121 41.1232 6.27121 41.1753 6.27121 41.22C6.27121 41.2497 6.28604 41.3688 6.28604 41.406C6.28604 41.406 6.28604 41.406 6.28604 41.4135C6.28604 41.4135 6.28604 41.406 6.29345 41.3986H6.30827C6.30827 41.4135 6.29345 41.4209 6.27121 41.4284C6.21932 41.4953 6.23415 41.4656 6.2638 41.4284C6.2045 41.4432 6.11554 41.4432 6.12296 41.4358C6.10813 41.4358 6.0933 41.4358 6.07848 41.4358C5.18894 41.4953 4.292 41.4358 3.40247 41.3986C2.88357 41.3763 2.34985 41.3167 1.82354 41.2944C1.82354 41.2944 1.82354 41.287 1.82354 41.2795C1.82354 41.2646 1.82354 41.2423 1.81613 41.2125C1.80872 41.1307 1.80131 41.0786 1.79389 41.0488C1.79389 41.0488 1.79389 41.0265 1.79389 40.9074C1.79389 40.7958 1.78648 40.6841 1.77907 40.5725C1.77165 40.2674 1.76424 39.9623 1.76424 39.6646C1.76424 38.2729 1.80872 36.8812 1.86802 35.497C1.91991 34.1127 1.99404 32.7285 2.05334 31.3442C2.0904 30.5256 2.17194 29.6846 2.12747 28.866C2.11264 28.546 1.93474 28.0399 2.22383 27.8241C2.52776 27.6008 3.15784 27.6604 3.50624 27.6753C4.69229 27.7125 5.90798 27.772 7.06438 28.0622C6.84941 29.0893 6.84199 30.1684 6.76787 31.2028L6.75304 31.2177ZM40.5924 27.8539C41.1113 27.7348 41.7784 27.6455 42.2603 27.9283C42.7791 28.2334 42.8681 28.7469 42.9422 29.2753C42.1713 29.3795 41.4152 29.5804 40.6739 29.826C40.2291 29.9749 39.7918 30.146 39.3693 30.347C38.7021 30.2949 38.0424 30.6893 37.4568 30.9721C36.8267 31.2773 36.1892 31.5824 35.5443 31.8577C34.4472 32.334 33.2834 32.721 32.1122 32.9666C30.6444 33.2718 29.1248 33.2941 27.6126 33.1527C29.1619 32.788 30.6815 32.3117 32.1566 31.7089C33.7281 31.0614 35.2181 30.2726 36.7229 29.4837C37.9534 28.8437 39.2284 28.159 40.5924 27.8464V27.8539ZM29.2953 30.5554C30.9187 29.9526 32.505 29.2455 34.0691 28.5013C34.4472 28.3227 34.8327 28.1739 35.2033 27.9878C35.5295 27.8241 35.826 27.6976 36.1966 27.6529C36.4486 27.6232 36.7081 27.6083 36.9601 27.638C35.8185 28.1962 34.714 28.8437 33.5799 29.4018C31.9268 30.2205 30.1997 30.8828 28.4206 31.3814C27.4347 31.6568 26.434 31.8801 25.4258 32.0438C24.6697 32.1629 23.8617 32.1331 23.0908 32.2522C22.5941 32.1108 22.1049 31.9545 21.6157 31.7982C22.5052 31.7759 23.4021 31.7312 24.2843 31.5973C25.9892 31.3293 27.6645 31.1656 29.2953 30.5628V30.5554ZM45.7961 32.7582C45.3069 33.2792 44.6842 33.6364 44.0319 33.9267C42.4975 34.6113 40.8592 34.9834 39.3396 35.7053C36.5228 37.0449 34.1729 39.1883 31.3486 40.5055C29.8068 41.22 28.213 41.4805 26.5229 41.4581C24.5511 41.4358 22.5719 41.1977 20.6149 41.0414C18.4356 40.8702 16.2636 40.7065 14.0769 40.6693C13.0168 40.6544 11.9568 40.6544 10.8968 40.6841C10.3557 40.699 9.81452 40.7214 9.27339 40.7437C8.91016 40.7586 8.54693 40.8032 8.18371 40.833C8.18371 40.7214 8.18371 40.6172 8.19112 40.513C8.32455 37.618 8.43574 34.723 8.42092 31.8205C8.42092 31.1656 8.4135 30.5033 8.40609 29.8484C8.40609 29.8186 8.40609 29.7888 8.40609 29.7591C8.73967 29.0297 9.31045 28.412 9.89606 27.8539C10.7708 27.0278 11.7937 26.3282 12.9501 25.9636C15.4482 25.1821 18.1317 25.6956 20.6742 25.9636C22.0827 26.1124 23.5133 26.1571 24.9292 26.1496C25.4332 26.1496 25.9373 26.0975 26.4414 26.0901C26.7824 26.0901 27.3309 26.0603 27.5978 26.3133C27.8572 26.5515 27.6941 26.998 27.5755 27.2734C27.3902 27.705 27.1011 28.0697 26.7379 28.3599C25.8632 29.0744 24.7439 29.2753 23.6542 29.3795C22.0827 29.5358 20.4444 29.5656 18.9248 30.0419C18.1835 30.28 17.4571 30.5702 16.7455 30.8903C16.0338 31.2103 15.2258 31.4856 14.6921 32.0736C14.3289 32.468 14.5513 33.3015 15.174 33.242C15.9968 33.1601 16.6862 32.721 17.4274 32.3861C17.5016 32.3564 17.5757 32.3192 17.6498 32.2894C17.8574 32.4829 18.0946 32.5499 18.317 32.5201C19.7328 33.0113 21.1338 33.5248 22.5793 33.9043C24.1731 34.3211 25.7816 34.6411 27.4199 34.8048C28.9469 34.9537 30.4665 34.9909 31.9861 34.7602C33.3056 34.5592 34.5361 34.135 35.7592 33.5992C36.4709 33.2866 37.1677 32.9443 37.8571 32.5871C38.2722 32.3713 38.7392 32.1703 39.1469 31.895C40.3107 31.4261 41.5264 31.0763 42.7717 30.92C43.7873 30.7935 45.4329 30.6 46.152 31.5452C46.4485 31.9322 46.1149 32.401 45.7961 32.7434V32.7582ZM6.25638 41.4209C6.25638 41.4209 6.25638 41.4209 6.2638 41.406C6.2638 41.406 6.25639 41.406 6.24897 41.4209H6.25638ZM6.24897 41.4284C6.14519 41.4284 6.10813 41.4358 6.10072 41.4432C6.15261 41.4432 6.19708 41.4358 6.24897 41.4284C6.24897 41.4284 6.24897 41.4284 6.25638 41.4284H6.24897ZM6.25638 41.4284C6.25638 41.4284 6.25638 41.4284 6.25638 41.4358V41.4284ZM6.24156 41.3911C6.24156 41.3911 6.24156 41.4135 6.24897 41.4209C6.24897 41.4209 6.24156 41.406 6.23415 41.3986L6.24156 41.3911ZM6.27121 41.4135C6.27121 41.4135 6.27121 41.4135 6.27121 41.4209C6.27121 41.4209 6.27121 41.4209 6.27121 41.4135Z" fill="black"/>
<path d="M43.0679 5.56429C42.8826 4.35866 42.3266 3.25722 41.5705 2.31207C40.8144 1.36691 39.8063 0.645023 38.6647 0.250589C37.3897 -0.195941 36.0035 -0.0098868 34.7879 0.525949C33.461 1.10644 32.3861 2.08136 31.378 3.10093C31.2371 3.24234 31.0963 3.39862 30.9629 3.54746C30.8887 3.42839 30.8146 3.31676 30.7479 3.22745C30.3624 2.67673 29.7991 2.22276 29.2653 1.82833C28.3758 1.15853 27.3009 0.689676 26.2187 0.4292C25.2402 0.191051 24.2024 0.124072 23.2239 0.384548C22.1417 0.66735 21.2892 1.34459 20.6517 2.25253C19.347 4.12051 19.0579 6.63596 19.5694 8.82395C20.1254 11.198 21.8007 13.2744 23.4463 15.0084C24.447 16.0577 25.4996 17.0773 26.5893 18.0299C27.1601 18.5211 27.7531 18.9825 28.3239 19.4737C28.8725 19.9425 29.4432 20.404 30.0956 20.7091C30.2883 20.8058 30.5033 20.8356 30.7034 20.8058C30.8591 20.8654 31.0444 20.8728 31.2297 20.8058C32.5937 20.2923 33.8168 19.243 34.9287 18.3201C36.011 17.4345 37.0265 16.4596 38.005 15.4549C39.7692 13.6241 41.5409 11.7041 42.5194 9.31514C43.0012 8.13928 43.2607 6.8369 43.0679 5.56429ZM40.9034 7.89368C40.2733 10.0966 38.6277 11.8901 37.0858 13.5051C36.0999 14.547 35.0844 15.5442 34.0169 16.4968C33.4832 16.9731 32.9347 17.442 32.3565 17.8736C31.8227 18.2755 31.2445 18.6327 30.7108 19.042C29.8435 18.5583 29.0874 17.829 28.3387 17.1964C27.4492 16.4373 26.6116 15.6261 25.7591 14.8372C24.1728 13.3711 22.6457 11.771 21.6746 9.8212C20.8296 8.13928 20.7481 6.11501 21.3855 4.35122C21.6598 3.59956 22.1268 2.78836 22.8088 2.33439C23.476 1.88786 24.2691 1.79112 25.0549 1.85809C25.9741 1.93996 26.8858 2.2823 27.6938 2.71394C28.2201 2.99674 28.7316 3.29443 29.1912 3.67398C29.4136 3.86748 29.6286 4.06842 29.8509 4.26935C29.9177 4.32889 29.977 4.39587 30.0363 4.45541C29.8213 4.64146 29.5989 4.76798 29.2579 4.64146C29.0133 4.54471 28.8576 4.84984 28.9466 5.04334C29.3839 5.94384 30.5329 5.75034 31.1927 5.23683C31.9636 4.6489 32.6159 3.91957 33.3794 3.31676C34.2764 2.61719 35.2771 1.9474 36.4113 1.74646C37.4268 1.56785 38.4201 1.91019 39.2207 2.52789C40.896 3.80794 41.4668 5.92895 40.9034 7.89368Z" fill="black"/>
</svg>
