<svg width="119" height="198" viewBox="0 0 119 198" fill="none" xmlns="http://www.w3.org/2000/svg">
<path d="M113.351 46.4713C108.489 51.0851 103.063 55.0187 97.2514 58.3608C91.4401 61.7324 85.3322 64.3942 79.9359 68.4461C69.4695 76.2541 62.0867 87.6111 58.0544 99.9442C58.1433 93.0235 58.173 86.0732 58.4398 79.1525C58.677 72.2022 59.3293 65.2815 60.9007 58.5086C66.1784 56.882 70.6852 53.8653 74.9844 50.4049C79.0168 47.1516 82.6044 43.2772 85.2729 38.8408C88.2675 33.8129 89.6907 28.4302 90.4616 22.6925C90.9064 19.4096 91.1139 16.0971 91.3511 12.8142C91.5883 9.56089 91.7959 6.33714 91.529 3.08381C91.2918 0.333273 88.2972 -0.997633 86.1624 0.865636C83.7608 2.96551 81.4184 5.09496 78.9575 7.07653C76.793 8.79192 74.4507 10.2411 72.1677 11.7791C67.5719 14.8549 63.3024 18.4927 59.8926 22.8404C56.3643 27.3063 53.5772 32.5116 52.8953 38.2493C52.5098 41.3252 52.9842 44.2827 53.3104 47.329C53.4586 48.7487 53.6069 50.1683 53.9627 51.5584C54.1702 52.3865 54.4074 53.2442 54.7039 54.0427C54.8818 54.4864 55.1487 54.9004 55.3859 55.344C53.5772 60.6381 52.4505 66.1096 51.6796 71.6698C50.5233 68.9489 49.1594 66.3166 47.7066 63.7731C44.6526 58.3903 41.065 52.9188 36.8844 48.3346C33.0596 44.1349 28.1377 41.0886 23.2455 38.2493C20.1619 36.4748 16.9597 35.0847 13.7575 33.5468C10.4664 31.9793 7.47176 29.909 4.53642 27.7795C2.54988 26.3895 0.0296498 28.2231 0 30.2639C0 31.9497 0.652296 33.2214 1.39354 34.7002C2.10514 36.1199 2.57953 37.7169 3.08358 39.2253C4.18063 42.3307 5.60382 45.3475 6.73051 48.4529C9.0432 54.8117 10.5553 61.4366 12.9273 67.7954C16.9004 78.5314 24.1943 87.6703 32.941 94.9459C35.5501 97.1049 38.2186 99.0273 41.1243 100.772C42.5771 101.66 43.9114 102.724 45.4235 103.552C46.6688 104.233 47.9734 104.765 48.9519 105.8C49.278 106.155 49.6338 106.392 50.0193 106.569C49.96 109.911 49.871 113.253 49.8117 116.595C49.3077 115.501 48.7443 114.407 48.181 113.342C45.8979 109.083 42.6364 105.504 38.7227 102.695C34.9571 100.003 30.5393 98.1401 26.0325 97.0458C20.6956 95.774 15.329 95.3304 10.1402 93.3784C8.213 92.6686 5.98926 94.8867 6.73051 96.7796C7.76825 99.5301 9.51759 101.719 11.0297 104.173C12.5122 106.599 13.4314 109.349 14.5284 111.952C16.7225 117.068 19.6875 121.889 23.0972 126.267C26.3883 130.496 30.3911 134.015 35.3722 136.145C39.9976 138.126 44.8009 139.369 49.7524 139.783C49.871 143.006 50.1082 146.23 50.3751 149.454C50.6123 152.086 50.7605 154.748 51.2349 157.351C49.1001 157.469 46.9653 157.735 44.8602 158.238C37.2698 160.012 30.1539 164.833 24.6687 170.246C21.5258 173.351 17.3155 177.758 15.9516 182.46C15.8923 182.579 15.833 182.727 15.7737 182.874C14.5877 186.157 14.8842 190.239 17.3748 192.871C19.6282 195.296 22.7118 196.095 25.8546 196.598C33.2968 197.81 40.6499 196.509 48.0327 195.562C55.712 194.586 63.5099 193.551 71.2782 193.61C78.4534 193.67 85.9548 194.113 92.8929 191.954C99.2083 189.973 102.974 184.383 100.483 177.906C98.2299 171.991 93.0412 168.087 87.5263 165.366C81.1219 162.201 74.0653 160.456 67.0975 158.977C64.607 158.445 62.0867 158.001 59.5368 157.705C59.2107 155.842 58.8845 154.038 58.7066 152.145C58.2916 147.443 57.8468 142.711 57.7579 137.979C57.6986 134.784 57.6689 131.62 57.6689 128.426C64.5773 128.514 71.4857 127.154 77.979 124.906C84.5909 122.658 90.7878 119.464 95.8579 114.614C98.3781 112.218 100.75 109.675 102.707 106.806C104.782 103.789 106.176 100.358 107.51 96.9866C108.904 93.4967 110.238 90.0068 111.335 86.4281C112.462 82.7016 112.966 78.9454 113.47 75.1006C113.974 70.96 114.804 66.8786 115.516 62.7675C116.287 58.2425 116.998 53.7174 118.125 49.281C118.836 46.4713 115.397 44.5193 113.322 46.4713H113.351ZM57.9951 47.329C57.9061 44.401 57.6393 41.5322 58.1433 38.6338C59.0328 33.6946 61.9088 29.1696 65.2889 25.5318C68.6393 21.9235 72.5828 18.9955 76.7041 16.3337C79.8173 14.3226 82.6934 12.0748 85.5101 9.73834C85.4211 13.4353 85.0357 17.1323 84.6206 20.7405C84.0276 25.9162 82.9306 30.8258 80.2917 35.3805C77.979 39.3732 74.8658 42.7448 71.3078 45.6728C68.6986 47.8318 65.9709 49.7838 62.9762 51.233C64.518 46.915 66.6528 42.8335 68.8765 38.8704C70.0625 36.7409 71.3671 34.7002 72.6717 32.6595C73.2944 31.6539 73.8874 30.6188 74.3321 29.4949C74.7769 28.371 74.8658 27.1584 75.0437 25.9458C75.1327 25.4135 74.4804 25.1177 74.1839 25.5909C73.5019 26.5965 72.5235 27.3063 71.7526 28.2527C71.1003 29.0513 70.3887 29.8202 69.766 30.6483C68.3428 32.482 66.9197 34.3157 65.5854 36.2086C63.0059 39.876 60.5449 43.7208 58.5288 47.7135C58.3805 48.0389 58.2026 48.3642 58.0544 48.6895C58.0544 48.2459 57.9951 47.8318 57.9951 47.3882V47.329ZM39.375 92.5207C35.0757 89.3561 31.073 85.7183 27.5447 81.696C24.1053 77.7328 21.2293 73.2965 19.1241 68.5052C16.6039 62.7971 15.2993 56.5271 13.2831 50.6119C12.0971 47.1516 10.8518 43.7504 9.42864 40.4083C9.0432 39.5211 8.71705 38.6042 8.36125 37.7169C15.5365 41.8871 23.542 44.8151 29.8574 50.4049C34.0676 54.1314 37.1512 59.0706 40.2645 63.6844C43.4963 68.5052 46.4613 73.5035 48.3589 79.0046C49.1594 81.3411 49.9007 83.8254 50.3454 86.2802C50.3158 87.3154 50.2861 88.3801 50.2565 89.4448C47.3804 83.9437 44.0893 78.6497 40.4424 73.6514C37.6849 69.8361 35.135 65.7547 31.9922 62.2352C30.5097 60.5789 28.8789 59.1297 27.0999 57.7988C25.4396 56.5566 23.2751 55.4919 21.9409 53.954C21.4072 53.3329 20.5473 54.1314 20.8735 54.7821C22.5932 58.2425 25.4099 60.9339 27.4557 64.1576C29.6202 67.5588 31.5474 71.167 33.6526 74.5978C35.8466 78.1469 38.0704 81.696 40.1459 85.2746C42.2807 88.9716 44.0003 92.8756 45.8979 96.6908C43.7335 95.2712 41.4505 94.0586 39.3453 92.5207H39.375ZM26.9813 121.978C23.8978 117.956 21.1996 113.579 19.2427 108.906C18.2643 106.569 17.3748 104.144 16.0999 101.926C15.8627 101.512 15.5958 101.098 15.329 100.684C22.1188 102.192 29.0568 102.843 35.135 106.687C38.7523 108.994 41.6877 112.129 43.7631 115.856C44.9195 117.956 46.0758 120.085 47.1432 122.244C45.5125 120.736 43.8224 119.287 42.162 117.808C39.6715 115.59 37.3291 113.342 34.6606 111.301C33.3857 110.325 32.0515 109.32 30.6283 108.58C29.2051 107.841 27.7226 107.309 26.3883 106.451C25.7064 106.037 24.7873 106.894 25.2617 107.575C26.8627 109.941 28.9382 112.129 30.8951 114.2C33.0003 116.447 35.0461 118.754 37.1512 121.002C39.2564 123.279 41.5691 125.379 43.7038 127.627C44.7712 128.721 45.7497 129.875 46.7874 130.969C47.2618 131.472 47.7362 131.975 48.2699 132.448C48.4775 132.655 49.4263 133.838 49.1594 133.187C49.1891 133.276 49.2187 133.365 49.278 133.453C45.3049 133.128 41.3615 132.211 37.6553 130.703C33.3264 128.928 29.7981 125.675 26.9813 121.978ZM78.3052 169.477C82.9602 171.044 87.9117 173.174 91.3511 176.811C92.5964 178.113 93.8417 180.065 94.0196 181.751C94.1085 182.638 94.0492 182.786 93.5156 183.466C93.2784 183.762 92.5074 184.324 91.8552 184.619C86.6961 186.956 79.9656 186.453 74.4507 186.423C67.9871 186.364 61.5827 186.838 55.1783 187.577C48.0031 188.375 40.8278 189.825 33.5933 190.091C30.5393 190.209 27.2185 190.239 24.2239 189.411C23.3937 189.174 22.3263 188.79 21.8816 187.991C21.2293 186.867 21.2293 184.886 21.081 183.643C21.081 183.614 21.081 183.584 21.081 183.555C22.8304 180.242 26.0325 177.521 28.7307 175.214C32.8817 171.636 37.4774 168.323 42.6661 166.312C45.9869 165.04 49.4856 164.567 53.0139 164.567C53.1325 164.863 53.2807 165.159 53.429 165.454C54.3185 167.17 56.6312 167.17 57.9061 166.016C58.2916 165.661 58.6177 165.306 58.8846 164.922C59.3886 164.981 59.9223 165.07 60.4263 165.129C66.4749 166.046 72.5828 167.525 78.3645 169.477H78.3052ZM106.591 79.8623C105.791 83.4705 104.605 87.0492 103.3 90.48C100.928 96.6021 98.4374 102.606 93.7824 107.368C89.3646 111.893 84.3241 115.264 78.3941 117.542C73.6205 119.375 68.6393 120.706 63.5989 121.298C65.3779 119.849 67.1568 118.429 68.8172 116.832C72.9386 112.957 76.6744 108.669 80.2028 104.233C83.6421 99.885 87.5263 95.6853 90.5506 91.0123C92.122 88.6463 93.3969 86.1028 94.7608 83.6184C96.0654 81.2228 97.1921 78.6793 97.37 75.9287C97.4293 75.1893 96.3619 74.9823 96.0061 75.5738C93.2487 80.0693 90.3727 84.5944 86.9333 88.6463C83.5236 92.639 79.6691 96.3359 76.1111 100.181C72.5531 103.996 69.0841 107.93 65.2593 111.508C63.2431 113.401 61.049 115.028 58.8846 116.743C58.7956 116.832 58.677 116.921 58.5881 117.009C58.8253 116.004 59.0328 114.998 59.27 114.022C60.0705 110.71 60.9007 107.427 61.9088 104.173C63.8064 97.933 66.5935 92.0475 70.2404 86.6351C73.7688 81.4002 78.1273 76.6385 83.2864 72.9712C88.4454 69.3038 94.1975 66.8786 99.6827 63.7435C103.537 61.5254 107.243 59.041 110.742 56.32C109.882 60.7268 109.141 65.1928 108.311 69.57C107.659 73.0007 107.362 76.4907 106.621 79.8919L106.591 79.8623Z" fill="black"/>
</svg>
