<svg width="48" height="48" viewBox="0 0 48 48" fill="none" xmlns="http://www.w3.org/2000/svg">
<path d="M9.88635 29.1664C9.14302 28.4976 7.47795 28.1559 6.86098 29.1809C6.78665 29.3118 6.71975 29.4644 6.69001 29.6171C6.52648 29.777 6.37038 29.9442 6.26631 30.1259C6.02101 30.5621 5.96898 31.1146 6.11021 31.5944C6.39268 32.5612 7.36645 33.2664 8.39968 33.2082C9.37345 33.1573 10.1688 32.4231 10.5108 31.5653C10.8601 30.6857 10.5851 29.7843 9.88635 29.1591V29.1664ZM8.92002 31.3472C8.47402 31.9651 7.54485 31.8052 7.35901 31.0419C7.29211 30.7802 7.33671 30.5621 7.43335 30.3513C7.75298 30.2713 8.02802 30.0096 8.37738 30.0678C9.09842 30.1768 9.28425 30.8529 8.92002 31.3472ZM30.8484 32.4449C29.8449 32.205 28.8414 32.2414 27.8825 31.6889C26.7898 31.0637 25.8829 30.1914 24.7233 29.668C23.5711 29.1518 22.2926 28.7375 21.0289 29.0864C20.516 29.2318 20.018 29.4644 19.5646 29.7334C19.2524 29.9151 18.9699 30.1696 18.851 30.504C18.5982 30.6057 18.4719 30.9837 18.7766 31.1219C19.4679 31.4345 19.7132 32.4958 19.9065 33.1355C20.1815 34.0515 20.5606 34.8657 21.3337 35.4763C23.0136 36.8066 25.4146 36.7266 27.3845 36.1596C28.5961 35.8107 29.607 35.091 30.4619 34.2041C30.6774 34.1896 30.8856 34.1387 31.064 34.0224C31.6661 33.6226 31.6363 32.6267 30.8558 32.4449H30.8484ZM28.1278 34.0297C27.5629 34.4004 26.9533 34.5894 26.2917 34.7348C25.2139 34.9747 24.0097 35.091 22.9542 34.6766C22.4933 34.4949 22.077 34.1969 21.7797 33.8043C21.4824 33.4118 21.3783 32.9465 21.1627 32.4595C20.858 31.7689 20.4491 30.991 19.7876 30.6566C19.9957 30.613 20.2187 30.5839 20.3822 30.5476C20.8951 30.4385 21.4229 30.3295 21.9507 30.3876C22.5007 30.4385 23.0359 30.7148 23.534 30.9474C24.0246 31.1728 24.5003 31.4345 24.924 31.7616C25.8606 32.4667 26.6931 33.3027 27.8156 33.7316C27.9791 33.797 28.1575 33.8552 28.3285 33.8988C28.2616 33.9497 28.1947 34.0006 28.1204 34.0442L28.1278 34.0297ZM45.5516 23.7361C44.6001 23.1981 43.4628 23.4816 42.5485 23.9541C41.6268 24.4339 40.7422 25.1173 39.9617 25.7933C38.9953 26.6366 38.081 27.5525 37.308 28.5557C36.9437 29.021 36.5572 29.5444 36.2599 30.0969C34.8327 28.5485 32.8777 27.4871 31.0417 26.4839C28.5515 25.1245 26.0539 23.8887 23.2738 23.1981C20.2038 22.4348 17.0893 22.3839 13.9896 22.98C11.2987 23.5034 8.61525 24.3758 6.30348 25.8515C4.99521 26.6875 3.82817 27.6761 2.71317 28.7447C1.7171 29.7043 0.758201 30.7293 0.237867 32.0015C0.104067 32.0814 0 32.2196 0 32.3868C0 32.7139 0.0446001 33.041 0.170967 33.3391C0.312201 33.6807 0.564934 33.9497 0.765635 34.255C1.19677 34.9093 1.67994 35.5563 2.19284 36.1596C3.12944 37.2719 4.12551 38.2969 5.32971 39.1401C7.60431 40.7394 10.3547 41.5681 13.105 41.9461C14.718 42.1642 16.3385 42.2369 17.9664 42.1933C19.5423 42.157 21.1404 42.077 22.694 41.7862C25.764 41.2192 28.6481 39.8525 31.3093 38.2823C33.3609 37.0683 35.0557 35.4254 36.0889 33.3536C36.1855 33.8479 36.3193 34.335 36.52 34.8002C37.0404 36.036 37.8283 37.1846 38.7054 38.2024C39.5454 39.1765 40.5786 40.0343 41.7754 40.5649C42.3998 40.8412 43.0985 41.1029 43.7973 41.0738C44.273 41.052 44.9495 40.9284 45.2245 40.5068C45.388 40.4922 45.559 40.4341 45.7151 40.3178C46.1983 39.947 46.3618 39.2855 46.5402 38.733C46.7112 38.1878 46.845 37.6353 46.949 37.0756C47.1646 35.927 47.2464 34.7639 47.2687 33.5935C47.2984 31.6453 47.2612 29.6898 47.2018 27.7416C47.1572 26.324 46.949 24.4994 45.559 23.7142L45.5516 23.7361ZM13.7666 38.9657C13.6402 39.191 13.4767 39.4091 13.328 39.6199C13.2537 39.7217 13.1868 39.8162 13.0976 39.9107C13.0307 39.9834 12.8448 40.0633 13.0009 40.0197C12.9192 40.0415 12.8523 40.0779 12.7854 40.1142C10.8676 39.8016 8.96462 39.2274 7.28468 38.3041C6.02845 37.6135 4.98034 36.7266 4.01401 35.6871C3.45651 35.0837 2.90644 34.4804 2.37124 33.8552C2.1185 33.5644 1.88807 33.2736 1.59817 33.0192C1.44207 32.8738 1.28597 32.7284 1.15217 32.5612C2.70574 30.8456 4.44514 29.1809 6.39268 27.916C8.39225 26.6148 10.5182 25.7424 12.83 25.1536C12.8523 25.1827 12.8746 25.2045 12.8969 25.2336C13.1273 25.5098 13.3206 25.8151 13.499 26.1277C13.8409 26.7384 14.1011 27.3708 14.3018 28.0396C14.7403 29.4935 14.941 31.0419 15.0005 32.554C15.06 34.0733 14.9187 35.5853 14.5025 37.0538C14.3166 37.6935 14.0936 38.3914 13.7666 38.9729V38.9657ZM33.6805 34.5022C32.9223 35.3236 32.0303 36.0215 31.064 36.6031C28.7076 38.0133 26.0688 39.1474 23.3853 39.8235C21.9804 40.1797 20.5681 40.3032 19.1186 40.3759C17.736 40.4486 16.3534 40.4559 14.9708 40.3614C15.2532 39.9543 15.4762 39.5327 15.6695 39.0602C16.1898 37.7662 16.5392 36.4868 16.6656 35.0983C16.7994 33.6735 16.7176 32.2268 16.4946 30.8165C16.2865 29.4862 15.9743 28.1486 15.4093 26.9201C15.0971 26.2368 14.7032 25.597 14.1828 25.0446C14.1308 24.9937 14.0788 24.9355 14.0119 24.8774C16.5466 24.3612 19.178 24.2885 21.7128 24.841C24.307 25.4008 26.7526 26.3749 29.0421 27.6834C31.2052 28.9119 33.5764 30.0605 35.1523 32.016C34.8104 32.9174 34.1872 33.9467 33.5256 34.6663L33.6805 34.5022ZM45.4921 27.916C45.4772 29.6534 45.4847 31.3908 45.4772 33.1282C45.4772 34.2259 45.4475 35.3236 45.2542 36.4068C45.1576 36.9665 45.0312 37.5263 44.8677 38.0715C44.7636 38.4204 44.6001 38.7694 44.496 39.1329C44.4291 39.1329 44.3622 39.1329 44.2953 39.1329C44.1467 39.1401 44.0054 39.1765 43.8642 39.2055C43.827 39.2128 43.7378 39.2201 43.7081 39.2274C43.2621 39.2128 42.8235 39.0383 42.4296 38.8493C41.4558 38.3696 40.6232 37.6717 39.8948 36.8938C39.1514 36.0942 38.5047 35.2001 38.0067 34.2332C37.7317 33.7025 37.4938 33.1719 37.3303 32.5976C37.2708 32.3795 37.2336 32.1323 37.1742 31.8924C37.2485 31.6307 37.2336 31.3472 37.0701 31.1146C37.0701 31.1146 37.0701 31.1146 37.0701 31.1073C37.3897 30.6348 37.7019 30.1623 38.0736 29.7261C38.7129 28.9846 39.4116 28.3013 40.1549 27.6543C40.9206 26.9855 41.7457 26.3967 42.5782 25.8224C43.1134 25.4517 44.0352 24.8265 44.6819 25.0882C44.838 25.1536 44.9792 25.299 45.0535 25.408C45.2171 25.6552 45.2765 25.8297 45.3509 26.135C45.4921 26.702 45.507 27.2908 45.4995 27.916H45.4921ZM47.0457 17.477C45.4921 16.8809 43.8716 16.4375 42.318 15.8341C40.5935 15.1581 38.8764 15.5942 37.2262 16.2339C36.8397 16.3793 36.4606 16.5247 36.074 16.6628C35.628 16.8155 35.1969 17.0336 34.7435 17.1572C33.9704 17.3752 33.0561 17.288 32.2905 17.0772C30.6477 16.6192 29.0644 15.7396 27.3399 15.587C26.2694 15.4925 25.147 15.6088 24.084 15.7396C23.5786 15.7978 23.0582 15.8559 22.5602 15.965C21.8466 16.1322 21.1702 16.4666 20.5012 16.7501C18.9922 17.3898 17.4386 18.1676 15.8182 17.3971C15.4242 17.2081 14.9931 17.1063 14.5842 16.9463C14.22 16.8082 13.8632 16.6338 13.5064 16.4811C12.6664 16.1322 11.7819 15.8559 10.875 15.6887C9.87149 15.4997 8.86055 15.427 7.84218 15.5797C6.93531 15.7105 6.08048 16.074 5.27024 16.4811C4.49718 16.8664 3.75384 17.3171 2.95104 17.6442C2.54964 17.8041 2.12594 17.9132 1.70967 18.0295C1.30827 18.1458 0.817668 18.2258 0.423701 18.0513C0.141234 17.9277 -0.0966335 18.2258 0.0966335 18.4657C1.10757 19.716 3.09227 19.0908 4.34108 18.5965C5.79801 18.015 7.15088 17.1935 8.77878 17.2081C10.5182 17.2299 12.0941 17.9495 13.6699 18.5893C14.0342 18.7346 14.4133 18.8873 14.7924 18.9891C15.2532 19.1127 15.7736 19.1199 16.2567 19.1563C17.1562 19.2217 18.0259 19.069 18.8807 18.7928C19.6612 18.5384 20.412 18.1967 21.1702 17.8841C21.5344 17.7315 21.9135 17.6151 22.3 17.5206C22.471 17.477 22.642 17.4407 22.8204 17.4116C22.865 17.4116 22.917 17.4043 22.9616 17.3971C24.0692 17.3026 25.199 17.3171 26.3066 17.3534C26.5519 17.3607 26.7898 17.3825 27.0351 17.3971C27.0648 17.3971 27.0797 17.3971 27.0946 17.3971C27.0946 17.3971 27.0946 17.3971 27.102 17.3971C27.2507 17.4407 27.4068 17.4625 27.5554 17.5061C28.44 17.7387 29.2874 18.0804 30.1274 18.4221C31.7999 19.0908 33.8961 19.7451 35.628 18.88C37.308 18.044 38.8987 16.4666 40.9429 16.7719C41.9241 16.9245 42.9202 17.4334 43.827 17.826C44.7859 18.2403 45.7523 18.6256 46.7037 19.0472C47.0754 19.2144 47.4396 19.149 47.6775 18.9164C48.3762 18.3784 47.7667 17.2444 47.0234 17.4698L47.0457 17.477ZM22.8427 17.4043C22.8798 17.4043 22.9616 17.3898 22.8427 17.4043V17.4043ZM4.35594 13.8423C5.81288 13.2607 7.16575 12.4393 8.79365 12.4538C10.5331 12.4756 12.1089 13.1953 13.6848 13.835C14.049 13.9804 14.4281 14.1331 14.8072 14.2348C15.2681 14.3584 15.7884 14.3657 16.2716 14.402C17.171 14.4675 18.0407 14.3148 18.8956 14.0386C19.6761 13.7841 20.4268 13.4425 21.185 13.1299C21.5493 12.9772 21.9284 12.8609 22.3149 12.7664C22.4859 12.7228 22.6568 12.6864 22.8352 12.6573C22.8798 12.6573 22.9319 12.6501 22.9765 12.6428C24.084 12.5483 25.2139 12.5628 26.3215 12.5992C26.5668 12.6065 26.8047 12.6283 27.05 12.6428C27.0797 12.6428 27.0946 12.6428 27.1094 12.6428C27.1094 12.6428 27.1094 12.6428 27.1169 12.6428C27.2655 12.6864 27.4216 12.7082 27.5703 12.7518C28.4549 12.9845 29.3023 13.3261 30.1422 13.6678C31.8147 14.3366 33.9109 14.9909 35.6429 14.1258C37.3228 13.2898 38.9136 11.7123 40.9577 12.0176C41.9389 12.1703 42.935 12.6792 43.8419 13.0717C44.8008 13.4861 45.7671 13.8714 46.7186 14.293C47.0903 14.4602 47.4545 14.3948 47.6924 14.1621C48.3911 13.6242 47.7816 12.4901 47.0382 12.7155C45.4847 12.1194 43.8642 11.676 42.3106 11.0726C40.5861 10.3965 38.869 10.8327 37.2188 11.4724C36.8322 11.6178 36.4531 11.7632 36.0666 11.9013C35.6206 12.054 35.1895 12.2721 34.736 12.3956C33.963 12.6137 33.0487 12.5265 32.283 12.3157C30.6403 11.8577 29.057 10.9781 27.3324 10.8254C26.262 10.7309 25.1396 10.8472 24.0766 10.9781C23.5711 11.0362 23.0508 11.0944 22.5528 11.2034C21.8392 11.3706 21.1627 11.705 20.4937 11.9886C18.9848 12.6283 17.4312 13.4061 15.8107 12.6355C15.4168 12.4465 14.9856 12.3448 14.5768 12.1848C14.2126 12.0467 13.8558 11.8722 13.499 11.7196C12.659 11.3706 11.7744 11.0944 10.8676 10.9272C9.86405 10.7382 8.85312 10.6655 7.83475 10.8182C6.92788 10.949 6.07305 11.3125 5.26281 11.7196C4.48974 12.1049 3.74641 12.5556 2.94361 12.8827C2.54221 13.0426 2.1185 13.1517 1.70224 13.268C1.30084 13.3843 0.810235 13.4643 0.416267 13.2898C0.1338 13.1662 -0.104067 13.4643 0.0892002 13.7042C1.10014 14.9545 3.08484 14.3293 4.33364 13.835L4.35594 13.8423ZM22.8427 12.6573C22.8798 12.6573 22.9616 12.6428 22.8427 12.6573V12.6573ZM4.35594 9.10983C5.81288 8.52827 7.16575 7.70682 8.79365 7.72136C10.5331 7.74317 12.1089 8.46285 13.6848 9.10256C14.049 9.24795 14.4281 9.40061 14.8072 9.50238C15.2681 9.62597 15.7884 9.63324 16.2716 9.66958C17.171 9.73501 18.0407 9.58235 18.8956 9.30611C19.6761 9.05168 20.4268 8.71001 21.185 8.39742C21.5493 8.24476 21.9284 8.12845 22.3149 8.03395C22.4859 7.99033 22.6568 7.95398 22.8352 7.9249C22.8798 7.9249 22.9319 7.91763 22.9765 7.91037C24.084 7.81586 25.2139 7.8304 26.3215 7.86675C26.5668 7.87402 26.8047 7.89583 27.05 7.91037C27.0797 7.91037 27.0946 7.91037 27.1094 7.91037C27.1094 7.91037 27.1094 7.91037 27.1169 7.91037C27.2655 7.95398 27.4216 7.97579 27.5703 8.01941C28.4549 8.25203 29.3023 8.5937 30.1422 8.93536C31.8147 9.60416 33.9109 10.2584 35.6429 9.39334C37.3228 8.55735 38.9136 6.97987 40.9577 7.28519C41.9389 7.43785 42.935 7.94671 43.8419 8.33927C44.8008 8.75363 45.7671 9.13891 46.7186 9.56054C47.0903 9.72774 47.4545 9.66231 47.6924 9.42969C48.3911 8.89175 47.7816 7.75771 47.0382 7.98306C45.4847 7.38696 43.8642 6.94352 42.3106 6.34015C40.5861 5.66409 38.869 6.10026 37.2188 6.73998C36.8322 6.88537 36.4531 7.03076 36.0666 7.16888C35.6206 7.32154 35.1895 7.53962 34.736 7.6632C33.963 7.88129 33.0487 7.79405 32.283 7.58324C30.6403 7.12526 29.057 6.24565 27.3324 6.09299C26.262 5.99849 25.1396 6.1148 24.0766 6.24565C23.5711 6.30381 23.0508 6.36196 22.5528 6.47101C21.8392 6.6382 21.1627 6.9726 20.4937 7.25611C18.9848 7.89583 17.4312 8.67366 15.8107 7.9031C15.4168 7.71409 14.9856 7.61232 14.5768 7.45239C14.2126 7.31427 13.8558 7.1398 13.499 6.98714C12.659 6.6382 11.7744 6.36196 10.8676 6.19476C9.87892 6.0203 8.86798 5.9476 7.85705 6.09299C6.95018 6.22384 6.09535 6.58732 5.28511 6.99441C4.51204 7.37969 3.76871 7.8304 2.96591 8.15753C2.5645 8.31746 2.1408 8.4265 1.72454 8.54281C1.32314 8.65912 0.832535 8.73909 0.438568 8.56462C0.1561 8.44104 -0.0817668 8.73909 0.1115 8.97898C1.12244 10.2293 3.10714 9.60416 4.35594 9.10983ZM22.8427 7.9249C22.8798 7.9249 22.9616 7.91037 22.8427 7.9249V7.9249Z" fill="#020300"/>
</svg>
