<svg width="192" height="174" viewBox="0 0 192 174" fill="none" xmlns="http://www.w3.org/2000/svg">
<path d="M190.858 123.392C187.954 117.888 181.287 116.52 175.42 116.728C176.309 112.474 173.138 107.625 169.197 106.048C164.337 104.114 158.559 106.048 153.937 107.803C153.374 108.011 152.84 108.22 152.277 108.458C150.499 106.078 145.551 105.631 143.18 105.691C140.602 105.78 138.143 106.881 135.773 107.863C133.165 108.934 130.587 110.124 128.009 111.224C122.764 113.455 117.549 115.865 112.097 117.591C115.593 114.378 118.586 108.785 117.105 103.936C115.475 98.5511 109.341 97.3016 104.452 97.1826C98.7329 97.0339 93.0732 97.2719 87.3543 96.8851C75.472 96.0819 62.8489 93.1665 51.174 96.9446C45.1291 98.8783 39.4398 102.627 35.2025 107.387C34.5802 108.101 33.9283 108.874 33.306 109.677C33.5727 108.101 32.9208 106.375 30.9355 105.84C26.1055 104.501 21.0385 104.144 16.0308 103.876C11.8231 103.668 6.69677 103.43 3.49654 106.702C0.800056 109.41 1.54085 112.979 1.54085 116.401C1.54085 118.096 1.45195 119.792 1.39269 121.488C0.888951 133.179 0.118527 144.9 0 156.621C0 159.299 0.0592634 161.947 0.118527 164.594C0.17779 166.32 0.0592634 168.224 0.651898 169.89C1.2149 171.556 2.5187 172.537 4.26697 172.656C10.46 173.043 16.7419 173.608 22.9646 173.43C25.9277 173.34 28.8909 172.686 30.7577 170.574C30.8466 170.574 30.9059 170.574 30.9948 170.574C34.9358 170.574 38.9361 170.038 42.8771 169.949C47.1144 169.83 51.3518 169.8 55.5595 169.86C63.8267 169.979 72.094 170.544 80.3316 171.199C88.8655 171.883 97.4587 172.924 106.022 173.013C113.934 173.102 121.283 171.734 128.453 168.432C140.632 162.839 150.559 153.26 162.886 147.905C169.671 144.93 177.227 143.532 183.539 139.486C188.635 136.214 194.206 129.758 190.858 123.392ZM26.9945 124.79C26.6093 130.68 26.1648 136.571 25.9574 142.491C25.75 147.994 25.5425 153.528 25.3055 159.031C25.2462 160.578 25.1573 162.095 25.0981 163.642C25.0981 163.821 25.0981 163.999 25.0684 164.178C25.0684 164.386 25.0684 164.594 25.0684 164.773C25.0684 164.892 25.1277 165.368 25.1277 165.516C25.1277 165.516 25.1277 165.516 25.1277 165.546C25.1277 165.546 25.1277 165.516 25.1573 165.487H25.2166C25.2166 165.546 25.1573 165.576 25.0684 165.606C24.861 165.873 24.9203 165.754 25.0388 165.606C24.8017 165.665 24.4462 165.665 24.4758 165.635C24.4165 165.635 24.3573 165.635 24.298 165.635C20.7422 165.873 17.1568 165.635 13.601 165.487C11.5267 165.397 9.39325 165.159 7.2894 165.07C7.2894 165.07 7.2894 165.04 7.2894 165.011C7.2894 164.951 7.2894 164.862 7.25977 164.743C7.23014 164.416 7.20051 164.207 7.17087 164.088C7.17087 164.088 7.17087 163.999 7.17087 163.523C7.17087 163.077 7.14124 162.631 7.11161 162.185C7.08198 160.965 7.05235 159.745 7.05235 158.555C7.05235 152.992 7.23014 147.429 7.46719 141.896C7.67461 136.362 7.97093 130.829 8.20798 125.296C8.35614 122.023 8.68209 118.662 8.5043 115.389C8.44504 114.11 7.73388 112.087 8.88951 111.224C10.1044 110.332 12.6231 110.57 14.0158 110.629C18.7569 110.778 23.6165 111.016 28.239 112.176C27.3797 116.282 27.3501 120.595 27.0538 124.73L26.9945 124.79ZM162.263 111.343C164.337 110.867 167.004 110.51 168.93 111.641C171.005 112.86 171.36 114.913 171.657 117.025C168.575 117.442 165.552 118.245 162.589 119.227C160.811 119.822 159.063 120.506 157.374 121.309C154.707 121.101 152.07 122.678 149.729 123.808C147.21 125.028 144.662 126.248 142.084 127.348C137.699 129.252 133.046 130.799 128.365 131.781C122.497 133.001 116.423 133.09 110.378 132.525C116.571 131.067 122.646 129.163 128.542 126.753C134.824 124.165 140.78 121.012 146.796 117.858C151.714 115.3 156.811 112.563 162.263 111.313V111.343ZM117.105 122.142C123.594 119.732 129.935 116.906 136.187 113.931C137.699 113.217 139.239 112.622 140.721 111.879C142.025 111.224 143.21 110.718 144.692 110.54C145.699 110.421 146.736 110.362 147.744 110.481C143.18 112.712 138.765 115.3 134.232 117.531C127.624 120.803 120.72 123.451 113.608 125.444C109.667 126.545 105.667 127.438 101.637 128.092C98.6143 128.568 95.3845 128.449 92.3028 128.925C90.3175 128.36 88.3618 127.735 86.4061 127.11C89.9619 127.021 93.5473 126.843 97.0735 126.307C103.889 125.236 110.586 124.582 117.105 122.172V122.142ZM183.065 130.948C181.109 133.03 178.62 134.458 176.012 135.619C169.879 138.355 163.33 139.843 157.255 142.729C145.995 148.083 136.602 156.651 125.313 161.917C119.149 164.773 112.778 165.814 106.022 165.725C98.1402 165.635 90.2286 164.683 82.4058 164.059C73.6941 163.374 65.012 162.72 56.2706 162.571C52.0333 162.512 47.796 162.512 43.5586 162.631C41.3955 162.69 39.2324 162.78 37.0693 162.869C35.6173 162.928 34.1654 163.107 32.7134 163.226C32.7134 162.78 32.7134 162.363 32.743 161.947C33.2764 150.374 33.7209 138.802 33.6616 127.2C33.6616 124.582 33.632 121.934 33.6024 119.316C33.6024 119.197 33.6024 119.078 33.6024 118.959C34.9358 116.044 37.2174 113.574 39.5583 111.343C43.0549 108.041 47.1441 105.245 51.7666 103.787C61.7525 100.663 72.4792 102.716 82.6428 103.787C88.2729 104.382 93.9918 104.56 99.6515 104.531C101.666 104.531 103.681 104.322 105.696 104.293C107.059 104.293 109.252 104.174 110.319 105.185C111.356 106.137 110.704 107.922 110.23 109.023C109.489 110.748 108.334 112.206 106.882 113.366C103.385 116.222 98.9107 117.025 94.5548 117.442C88.2729 118.067 81.7243 118.186 75.6498 120.089C72.6866 121.041 69.7827 122.202 66.938 123.481C64.0934 124.76 60.8635 125.861 58.7301 128.211C57.2781 129.788 58.167 133.12 60.6561 132.882C63.9452 132.554 66.701 130.799 69.6642 129.46C69.9605 129.341 70.2568 129.193 70.5531 129.074C71.3828 129.847 72.331 130.115 73.22 129.996C78.8796 131.959 84.48 134.012 90.2582 135.529C96.629 137.195 103.059 138.474 109.608 139.129C115.712 139.724 121.786 139.873 127.861 138.95C133.135 138.147 138.054 136.452 142.943 134.31C145.788 133.06 148.573 131.692 151.329 130.264C152.989 129.401 154.855 128.598 156.485 127.497C161.137 125.623 165.997 124.225 170.975 123.6C175.035 123.094 181.613 122.321 184.487 126.099C185.672 127.646 184.339 129.52 183.065 130.888V130.948ZM25.0092 165.576C25.0092 165.576 25.0092 165.576 25.0388 165.516C25.0388 165.516 25.0092 165.516 24.9795 165.576H25.0092ZM24.9795 165.606C24.5647 165.606 24.4165 165.635 24.3869 165.665C24.5943 165.665 24.7721 165.635 24.9795 165.606C24.9795 165.606 24.9795 165.606 25.0092 165.606H24.9795ZM25.0092 165.606C25.0092 165.606 25.0092 165.606 25.0092 165.635V165.606ZM24.9499 165.457C24.9499 165.457 24.9499 165.546 24.9795 165.576C24.9795 165.576 24.9499 165.516 24.9203 165.487L24.9499 165.457ZM25.0684 165.546C25.0684 165.546 25.0684 165.546 25.0684 165.576C25.0684 165.576 25.0684 165.576 25.0684 165.546Z" fill="white"/>
<path d="M172.159 22.2426C171.419 17.4232 169.196 13.0204 166.174 9.24221C163.151 5.46407 159.121 2.5784 154.558 1.0017C149.461 -0.78325 143.92 -0.0395215 139.061 2.10242C133.757 4.42285 129.46 8.31999 125.43 12.3956C124.867 12.9609 124.304 13.5856 123.771 14.1806C123.474 13.7046 123.178 13.2583 122.911 12.9014C121.371 10.6999 119.119 8.88522 116.985 7.30852C113.429 4.63109 109.133 2.7569 104.806 1.71568C100.895 0.763706 96.7466 0.495963 92.8352 1.53718C88.509 2.66765 85.1013 5.37482 82.553 9.00422C77.3378 16.4713 76.1822 26.5265 78.2268 35.2727C80.4492 44.7627 87.1459 53.0627 93.7242 59.9943C97.7244 64.1889 101.932 68.2645 106.288 72.0724C108.57 74.0359 110.94 75.8803 113.222 77.8437C115.415 79.7179 117.696 81.5624 120.304 82.7821C121.074 83.1688 121.934 83.2878 122.734 83.1688C123.356 83.4068 124.097 83.4366 124.837 83.1688C130.29 81.1162 135.179 76.9215 139.624 73.2326C143.95 69.6925 148.009 65.7953 151.921 61.7792C158.973 54.4609 166.055 46.7856 169.967 37.2362C171.893 32.5358 172.93 27.3297 172.159 22.2426ZM163.507 31.5541C160.988 40.3598 154.41 47.5294 148.247 53.9849C144.306 58.1498 140.246 62.1362 135.979 65.9441C133.846 67.848 131.653 69.7222 129.341 71.4477C127.208 73.0541 124.897 74.4821 122.763 76.1183C119.296 74.1846 116.274 71.2692 113.281 68.7405C109.725 65.7061 106.377 62.4634 102.969 59.31C96.6281 53.4494 90.5239 47.0534 86.6422 39.2591C83.2642 32.5358 82.9382 24.444 85.4866 17.3935C86.5829 14.3888 88.4497 11.1462 91.1758 9.33146C93.8427 7.54651 97.0133 7.15977 100.154 7.42751C103.829 7.75476 107.473 9.12322 110.703 10.8487C112.807 11.9791 114.852 13.1691 116.689 14.6863C117.578 15.4598 118.437 16.263 119.326 17.0662C119.593 17.3042 119.83 17.572 120.067 17.81C119.207 18.5537 118.318 19.0594 116.955 18.5537C115.978 18.167 115.355 19.3867 115.711 20.1602C117.459 23.7598 122.052 22.9863 124.689 20.9336C127.771 18.5834 130.379 15.668 133.431 13.2583C137.016 10.4619 141.016 7.7845 145.55 6.98128C149.61 6.2673 153.58 7.63576 156.78 10.1049C163.477 15.2218 165.759 23.7003 163.507 31.5541Z" fill="white"/>
</svg>
