<svg width="216" height="580" viewBox="0 0 216 580" fill="none" xmlns="http://www.w3.org/2000/svg">
<mask id="path-1-inside-1_502_530" fill="white">
<path fill-rule="evenodd" clip-rule="evenodd" d="M216 0H0V428V454V472C0 531.647 48.3532 580 108 580C167.647 580 216 531.647 216 472V454V428V0Z"/>
</mask>
<path fill-rule="evenodd" clip-rule="evenodd" d="M216 0H0V428V454V472C0 531.647 48.3532 580 108 580C167.647 580 216 531.647 216 472V454V428V0Z" fill="#F5F5F5"/>
<path d="M0 0V-5H-5V0H0ZM216 0H221V-5H216V0ZM0 5H216V-5H0V5ZM5 428V0H-5V428H5ZM5 454V428H-5V454H5ZM5 472V454H-5V472H5ZM108 575C51.1147 575 5 528.885 5 472H-5C-5 534.408 45.5918 585 108 585V575ZM211 472C211 528.885 164.885 575 108 575V585C170.408 585 221 534.408 221 472H211ZM211 454V472H221V454H211ZM211 428V454H221V428H211ZM211 0V428H221V0H211Z" fill="white" mask="url(#path-1-inside-1_502_530)"/>
</svg>
